# xmcd CD database file
# Copyright (C) 1995-1998 Ti Kan
#
# Track frame offsets:
#	150
#	13177
#	29105
#	42285
#	53940
#	68370
#	86097
#	99322
#	110357
#	128207
#	142937
#	157202
#	169375
#	185910
#	202370
#	221002
#	238050
#	256080
#	271017
#	283547
#
# Disc length: 3989 seconds
#
# Revision: 1
# Processed by: cddbd v1.4b41PL1 Copyright (c) Steve Scherf et al.
# Submitted via: CDex 1.30
#
DISCID=300f9314
DTITLE=Anne Murray - The Signature Series, Volume 7 (I'll Always Love You/So
DTITLE=mebody's Waiting)
DYEAR=1979
DGENRE=Country
TTITLE0=You've Got Me To Hold On To
TTITLE1=I'll Always Love You
TTITLE2=Stranger At My Door
TTITLE3=Good Old Song
TTITLE4=Why Don't You Stick Around
TTITLE5=Broken Hearted Me
TTITLE6=Easy Love
TTITLE7=Daydream Believer
TTITLE8=Wintery Feeling
TTITLE9=Lover's Knot
TTITLE10=Lucky Me
TTITLE11=You Set My Dreams To Music
TTITLE12=What's Forever For
TTITLE13=Do You Think Of Me
TTITLE14=The French Waltz
TTITLE15=I'm Happy Just To Dance With You
TTITLE16=Moon Over Brooklyn
TTITLE17=Nevertheless (I'm In Love With You)
TTITLE18=Beginning To Feel Like Home
TTITLE19=Somebody's Waiting
EXTD=\nYEAR: 1979  ID3G:   2
EXTT0=
EXTT1=
EXTT2=
EXTT3=
EXTT4=
EXTT5=
EXTT6=
EXTT7=
EXTT8=
EXTT9=
EXTT10=
EXTT11=
EXTT12=
EXTT13=
EXTT14=
EXTT15=
EXTT16=
EXTT17=
EXTT18=
EXTT19=
PLAYORDER=
